<?xml version="1.0" encoding="UTF-8" standalone="no"?>
<svg
   xmlns:dc="http://purl.org/dc/elements/1.1/"
   xmlns:cc="http://creativecommons.org/ns#"
   xmlns:rdf="http://www.w3.org/1999/02/22-rdf-syntax-ns#"
   xmlns:svg="http://www.w3.org/2000/svg"
   xmlns="http://www.w3.org/2000/svg"
   xmlns:sodipodi="http://sodipodi.sourceforge.net/DTD/sodipodi-0.dtd"
   xmlns:inkscape="http://www.inkscape.org/namespaces/inkscape"
   version="1.1"
   x="0px"
   y="0px"
   viewBox="0 0 611.7 612"
   style="enable-background:new 0 0 611.7 612;"
   id="svg3775"
   sodipodi:docname="hawk.svg"
   inkscape:version="0.92.3 (2405546, 2018-03-11)"
   inkscape:export-filename="C:\Users\jason\Desktop\hawk2.png"
   inkscape:export-xdpi="96"
   inkscape:export-ydpi="96">
  <metadata
     id="metadata3781">
    <rdf:RDF>
      <cc:Work
         rdf:about="">
        <dc:format>image/svg+xml</dc:format>
        <dc:type
           rdf:resource="http://purl.org/dc/dcmitype/StillImage" />
        <dc:title></dc:title>
      </cc:Work>
    </rdf:RDF>
  </metadata>
  <defs
     id="defs3779" />
  <sodipodi:namedview
     pagecolor="#ffffff"
     bordercolor="#666666"
     borderopacity="1"
     objecttolerance="10"
     gridtolerance="10"
     guidetolerance="10"
     inkscape:pageopacity="0"
     inkscape:pageshadow="2"
     inkscape:window-width="3840"
     inkscape:window-height="2035"
     id="namedview3777"
     showgrid="false"
     inkscape:zoom="2.0311989"
     inkscape:cx="-29.073276"
     inkscape:cy="333.72756"
     inkscape:window-x="-13"
     inkscape:window-y="-13"
     inkscape:window-maximized="1"
     inkscape:current-layer="Layer_2" />
  <style
     type="text/css"
     id="style3748"> .st0{stroke:#000000;stroke-width:0.5;stroke-miterlimit:10;} .st1{fill:#FFFFFF;} .st2{fill:none;stroke:#FFFFFF;stroke-width:0.5;stroke-miterlimit:10;} .st3{stroke:#FFFFFF;stroke-width:0.5;stroke-miterlimit:10;} .st4{fill:#8E8E8E;} .st5{fill:#686868;} .st6{fill:#050606;} </style>
  <g
     id="Layer_2">
    <path
       class="st0"
       d="m 173.35974,-6.8359935 c -10.87036,0.255418 -21.79948,1.955492 -31.95262,5.94810601 -6.17644,2.42643999 -12.03744,5.73571199 -17.09218,10.05522799 -7.6836,6.5942025 -15.34888,13.3229765 -21.70766,21.2446065 -3.727281,4.546602 -7.040621,9.424126 -10.032281,14.482534 -3.11266,5.280754 -5.80848,10.797686 -8.26046,16.412322 -5.17252,12.017938 -9.11032,24.532344 -12.37312,37.191902 -2.02758,7.992145 -3.93164,16.019965 -5.41618,24.132825 -1.44988,7.8279 -2.49874,17.12026 -2.94956,25.07342 -0.0508,1.09712 0.173,1.06994 1.2717,1.05282 33.97504,2.45758 177.622301,39.14848 219.604221,47.98412 -4.13422,-6.8898 -8.59066,-13.61404 -13.7403,-19.79272 -2.57984,-2.99464 -5.33256,-5.88016 -8.4844,-8.27814 -1.49556,-1.01894 -3.22016,-1.86366 -4.1875,-3.4697 -3.26102,-4.38776 -4.9722,-8.33976 -5.61164,-13.7352 -0.8189,-6.82822 0.1248,-15.16606 2.20472,-21.68674 2.21058,-7.05868 5.66814,-13.65674 9.55148,-19.92788 5.41768,0.71322 10.89132,1.30644 16.36032,0.91276 2.69378,-0.2056 5.50616,-0.48442 7.89358,-1.85808 0.48894,-0.30076 0.9341,-0.6575 1.34766,-1.05468 1.2506,4.03316 2.59146,8.15 2.55468,12.41796 0.0956,0.24992 -0.41854,1.67392 0.0702,0.89652 6.15452,-7.60518 9.74052,-17.36294 9.51106,-27.179995 -0.0834,-4.131404 -0.84292,-8.238646 -2.13532,-12.16001 -2.4811,-7.528256 -6.89134,-14.289368 -12.09596,-20.215624 -3.38568,-3.895678 -7.17856,-7.41549 -11.10384,-10.758854 -1.34062,-4.927766 -2.3388,-9.990224 -4.41966,-14.679238 -2.1709,-4.921412 -5.53818,-9.23837 -9.48718,-12.861664 -5.41228,-4.976252 -11.74974,-8.825044 -18.25388,-12.195652 -7.10648,-3.6451565 -14.5038,-6.7057445 -22.02328,-9.3869765 -7.22716,-2.53831799 -14.62474,-4.609562 -22.14742,-6.06276 -8.8494,-1.75587 -17.8725,-2.610678 -26.89514,-2.50121 z"
       id="path3750"
       inkscape:connector-curvature="0"
       style="stroke:#000000;stroke-width:1;stroke-miterlimit:10"
       sodipodi:nodetypes="ccccccccccccccccccccccccccccccccc" />
  </g>
  <g
     id="Layer_4"
     inkscape:export-xdpi="96"
     inkscape:export-ydpi="96"
     transform="matrix(2,0,0,2,-183.21448,-100.14849)">
    <path
       class="st5"
       d="m 169.2,71.6 c -0.1,-0.2 6.8,-6.3 8.6,-6.7 0,0 -8.8,5.7 -2.3,13.3 0,0 -4.9,-3.3 -6.3,-6.6 z"
       id="path3762"
       inkscape:connector-curvature="0"
       style="fill:#686868" />
    <path
       class="st4"
       d="m 193,65.5 c -1.4,-1.3 9.5,3.2 11.7,10.1 0,0 -7.5,5.7 -15.9,5.2 0,0 13.1,-7.1 4.2,-15.3 z"
       id="path3764"
       inkscape:connector-curvature="0"
       style="fill:#8e8e8e" />
    <path
       class="st6"
       d="m 182.7,64.1 c -7.7,-0.7 -12,13.6 -0.7,15.3 0,0 11,3.3 12.3,-7.1 0.4,-3.2 -2.6,-7.6 -4.4,-7.8 -1.8,-0.2 -7.2,-0.4 -7.2,-0.4 z"
       id="path3766"
       inkscape:connector-curvature="0"
       style="fill:#050606" />
  </g>
  <g
     id="Layer_5"
     inkscape:export-xdpi="96"
     inkscape:export-ydpi="96"
     transform="matrix(2,0,0,2,-183.21448,-100.14849)">
    <path
       class="st4"
       d="m 230.1,75.3 -4.7,-2.8 c 0,0 -3.4,-3.9 -7.2,1.5 -3.8,5.4 -8.3,3.4 -8.1,8.6 0.2,5.2 -11,9.7 -18.6,11.4 -7.6,1.6 4.3,2.7 5.4,2.3 1.1,-0.4 12.9,-8 19.9,2.7 6.9,10.7 17.6,6.8 19.6,5.5 0,0 1.5,4 1,6.7 -0.5,2.7 17.6,-17 -7.3,-35.9 z"
       id="path3769"
       inkscape:connector-curvature="0"
       style="fill:#8e8e8e" />
  </g>
  <g
     id="Layer_6"
     inkscape:export-xdpi="96"
     inkscape:export-ydpi="96"
     transform="matrix(2,0,0,2,-183.21448,-100.14849)">
    <path
       class="st4"
       d="m 204.7,75.6 c -3.9,5.4 -18.6,10.1 -21.6,18.5 -3,8.4 -7.9,17.4 -7.9,17.4 l -2.7,2 c 0,0 4.1,-16.4 1.1,-23.8 -3,-7.4 -5.7,-14 -8.5,-16.7 -2.7,-2.7 -9.8,-7.6 -13.7,-6.3 0,0 11,-2.1 17.8,-1.5 6.8,0.5 8.1,-0.1 8.1,-0.1 0,0 -7.5,5.2 -1.8,13 5.7,7.8 28.8,-2.5 28.8,-2.5"
       id="path3772"
       inkscape:connector-curvature="0"
       style="fill:#8e8e8e" />
  </g>
  <path
     style="opacity:0.98000004;fill:#ff0000;stroke:#000000;stroke-width:3.93856072;stroke-miterlimit:4;stroke-dasharray:none;stroke-opacity:0.02242886"
     d="m 117.04624,205.31305 c 0.0664,-0.1692 4.97108,-12.93572 10.89922,-28.36994 l 10.77844,-28.06226 4.05902,-0.0672 4.059,-0.0672 11.5578,28.2229 c 6.35678,15.5226 11.59472,28.31934 11.63984,28.43722 0.0452,0.1178 -1.80098,0.2143 -4.10248,0.2143 h -4.18454 l -1.12062,-2.89238 c -0.61634,-1.59082 -2.10024,-5.44014 -3.29754,-8.55406 l -2.1769,-5.66168 -12.08962,-0.0638 -12.08962,-0.0638 -0.47838,1.29464 c -0.26312,0.71206 -1.6699,4.59012 -3.12618,8.61792 l -2.6478,7.32326 h -3.9002 c -3.02046,0 -3.87296,-0.0694 -3.77942,-0.3077 z m 35.6801,-23.26212 c -1.21892,-2.9882 -8.00934,-21.35832 -8.87146,-23.99996 -0.62976,-1.92964 -1.179,-3.54376 -1.22054,-3.58692 -0.0416,-0.0432 -0.3229,1.00916 -0.62524,2.33852 -0.83334,3.6641 -1.94742,7.00028 -5.55578,16.63682 -1.8132,4.84236 -3.29674,8.85784 -3.29674,8.9233 0,0.0654 4.44274,0.119 9.87274,0.119 9.30544,0 9.86264,-0.0248 9.69702,-0.43078 z"
     id="path4614"
     inkscape:connector-curvature="0"
     inkscape:export-xdpi="96"
     inkscape:export-ydpi="96" />
  <path
     style="opacity:0.98000004;fill:#ff0000;stroke:#ffffff;stroke-width:3.93856072;stroke-miterlimit:4;stroke-dasharray:none;stroke-opacity:0.02242886"
     d="m 240.8518,177.18927 v -28.4315 h 3.56932 3.56932 v 13.9901 c 0,7.69456 0.0782,14.06838 0.174,14.16406 0.0956,0.0958 6.55092,-6.20228 14.345,-13.99548 l 14.17102,-14.16944 4.87008,0.067 4.87006,0.067 -11.82502,11.40974 -11.825,11.40972 0.71448,1.02136 c 0.39298,0.56174 5.98074,8.16614 12.41724,16.89868 l 11.70274,15.87732 -4.71572,0.067 c -3.56524,0.0506 -4.79024,-0.01 -5.02124,-0.24616 -0.168,-0.1722 -4.746,-6.62718 -10.17322,-14.3443 -5.42722,-7.71712 -9.97436,-14.03112 -10.10474,-14.03112 -0.1304,0 -2.34364,2.03002 -4.91836,4.51118 l -4.6813,4.5112 v 9.82762 9.82764 h -3.56932 -3.56932 z"
     id="path4620"
     inkscape:connector-curvature="0"
     inkscape:export-xdpi="96"
     inkscape:export-ydpi="96" />
  <path
     style="opacity:0.98000004;fill:#ff0000;stroke:#ffffff;stroke-width:3.93856072;stroke-miterlimit:4;stroke-dasharray:none;stroke-opacity:0.02242886"
     d="m 240.8518,177.18927 v -28.4315 h 3.56932 3.56932 v 14.03112 c 0,10.5465 0.0716,14.03114 0.28792,14.03114 0.27758,0 4.29834,-3.9187 20.88184,-20.3518 l 7.75404,-7.6837 4.56246,0.1712 4.56246,0.1712 -11.62966,11.20028 c -7.39014,7.11732 -11.58538,11.32762 -11.50822,11.5496 0.109,0.31342 8.7994,12.21254 20.24002,27.71294 l 4.1788,5.66168 -4.57508,0.0672 c -4.11268,0.0604 -4.61694,0.023 -4.9893,-0.36924 -0.22782,-0.24 -3.66014,-5.03342 -7.62736,-10.65202 -10.27654,-14.55418 -12.39078,-17.47682 -12.59578,-17.41178 -0.0996,0.0316 -2.28738,2.0467 -4.86166,4.47796 l -4.68048,4.42048 v 9.91834 9.91836 h -3.56932 -3.56932 z"
     id="path4622"
     inkscape:connector-curvature="0"
     inkscape:export-xdpi="96"
     inkscape:export-ydpi="96" />
  <path
     style="opacity:0.98000004;fill:#ff0000;stroke:#ffffff;stroke-width:3.93856072;stroke-miterlimit:4;stroke-dasharray:none;stroke-opacity:0.02242886"
     d="m 180.55696,205.44593 c -0.76992,-0.0842 -0.9465,-0.21934 -1.15672,-0.88536 -0.27128,-0.85946 -2.34068,-8.63788 -8.36252,-31.43294 -5.85088,-22.14794 -6.28454,-23.86298 -6.0844,-24.06312 0.21398,-0.214 6.67858,-0.2527 6.89022,-0.0412 0.23574,0.23552 9.34334,39.66212 10.48682,45.39718 0.29692,1.48926 0.62922,2.86996 0.73844,3.06824 0.22192,0.40288 0.35912,-0.0338 1.9692,-6.26832 0.93764,-3.63062 5.98784,-21.8824 10.04646,-36.30862 l 1.6967,-6.03092 4.40406,0.0912 c 2.42224,0.0502 4.44358,0.1266 4.4919,0.1698 0.24054,0.21524 7.86486,27.44716 9.64918,34.46416 1.21742,4.78766 1.91832,8.09818 2.83056,13.36946 0.0828,0.47796 0.23592,0.73986 0.35998,0.6154 0.1188,-0.1192 0.61792,-1.93366 1.10918,-4.03216 2.1811,-9.3169 10.73892,-44.42746 10.8577,-44.5463 0.1942,-0.1944 6.66688,-0.1606 6.86354,0.036 0.1706,0.1702 -15.04918,56.06546 -15.34836,56.36774 -0.0896,0.0906 -1.70646,0.0906 -3.59286,0 l -3.4298,-0.1648 -6.43458,-23.26212 c -6.38988,-23.10054 -7.16144,-25.7941 -7.49364,-26.16078 -0.0952,-0.105 -1.19292,3.5505 -2.43958,8.12328 -1.24664,4.5728 -4.34736,15.79128 -6.89048,24.92998 l -4.62386,16.6158 -2.81424,0.0238 c -1.54786,0.014 -3.22316,-0.021 -3.7229,-0.0756 z"
     id="path4624"
     inkscape:connector-curvature="0"
     inkscape:export-xdpi="96"
     inkscape:export-ydpi="96" />
  <path
     style="opacity:0.98000004;fill:#ff0000;stroke:#ffffff;stroke-width:3.93856072;stroke-miterlimit:4;stroke-dasharray:none;stroke-opacity:0.02242886"
     d="m 240.94638,177.17395 v -28.3084 h 3.4062 3.4062 l 0.1556,13.81836 c 0.0856,7.6001 0.20714,13.87002 0.27028,13.93314 0.25472,0.25474 1.79558,-1.20944 14.95744,-14.2131 l 13.7031,-13.5384 h 4.43668 c 2.44016,0 4.48292,0.083 4.53944,0.1846 0.0566,0.1016 -1.79238,2.00794 -4.10866,4.23644 -13.2664,12.76362 -18.87074,18.32954 -18.75634,18.62768 0.1322,0.3444 5.2426,7.36044 17.09944,23.4755 3.93472,5.34782 7.15736,9.8064 7.16142,9.90794 0.004,0.1016 -1.9918,0.1846 -4.43524,0.1846 -4.3644,0 -4.4522,-0.01 -4.98474,-0.5864 -0.29816,-0.32252 -4.66472,-6.38728 -9.70348,-13.47726 -5.03874,-7.08998 -9.47948,-13.27174 -9.8683,-13.73726 l -0.70694,-0.8464 -1.8243,1.69118 c -1.00336,0.93016 -3.18126,3.0044 -4.83976,4.60944 l -3.01546,2.91826 v 9.71422 9.71422 h -3.44624 -3.44624 z"
     id="path4636"
     inkscape:connector-curvature="0"
     inkscape:export-xdpi="96"
     inkscape:export-ydpi="96" />
  <path
     style="opacity:0.98000004;fill:#ff0000;stroke:#ffffff;stroke-width:3.93856072;stroke-miterlimit:4;stroke-dasharray:none;stroke-opacity:0.02242886"
     d="m 240.94638,177.17395 v -28.3084 h 3.41154 3.41152 l 0.181,13.8465 c 0.0996,7.61558 0.22222,13.88894 0.2726,13.9408 0.1834,0.1888 2.19618,-1.73902 15.28826,-14.64396 l 13.33392,-13.14334 h 4.4366 c 2.44014,0 4.48492,0.083 4.54398,0.1846 0.059,0.1016 -4.3738,4.50472 -9.8508,9.78486 -5.477,5.28012 -10.66832,10.35996 -11.53628,11.28852 l -1.57808,1.6883 0.97422,1.3887 c 0.53584,0.7638 6.01528,8.25658 12.17658,16.65064 6.16126,8.39406 11.20472,15.345 11.20766,15.44654 0.002,0.1016 -1.98856,0.1846 -4.42554,0.1846 -3.93952,0 -4.48004,-0.0492 -4.87422,-0.44334 -0.24384,-0.24384 -4.8394,-6.60578 -10.21234,-14.13764 -5.37294,-7.53186 -9.88492,-13.76592 -10.02662,-13.8535 -0.25764,-0.1592 -1.87188,1.29962 -7.07224,6.3914 l -2.7693,2.7115 v 9.66578 9.6658 h -3.44624 -3.44624 z"
     id="path4638"
     inkscape:connector-curvature="0"
     inkscape:export-xdpi="96"
     inkscape:export-ydpi="96" />
  <path
     style="opacity:0.98000004;fill:#ff0000;stroke:#ffffff;stroke-width:3.93856072;stroke-miterlimit:4;stroke-dasharray:none;stroke-opacity:0.02242886"
     d="m 65.557139,177.17395 v -28.3084 h 3.56932 3.56932 v 11.6926 11.6926 h 15.13886 15.138841 v -11.6926 -11.6926 h 3.56932 3.56932 v 28.3084 28.3084 h -3.56932 -3.56932 v -13.41762 -13.4176 l -15.077301,0.0634 -15.07732,0.0634 -0.0636,13.35418 -0.0636,13.35418 h -3.5672 -3.5672 z"
     id="path4647"
     inkscape:connector-curvature="0"
     inkscape:export-xdpi="96"
     inkscape:export-ydpi="96" />
</svg>